<?xml version="1.0" encoding="UTF-8" standalone="no"?>
<!-- Created with Inkscape (http://www.inkscape.org/) -->

<svg
   width="512"
   height="512"
   viewBox="0 0 512 512"
   version="1.1"
   id="svg1"
   xml:space="preserve"
   inkscape:version="1.3 (0e150ed6c4, 2023-07-21)"
   sodipodi:docname="data_gandalf_logo.svg"
   xmlns:inkscape="http://www.inkscape.org/namespaces/inkscape"
   xmlns:sodipodi="http://sodipodi.sourceforge.net/DTD/sodipodi-0.dtd"
   xmlns:xlink="http://www.w3.org/1999/xlink"
   xmlns="http://www.w3.org/2000/svg"
   xmlns:svg="http://www.w3.org/2000/svg"><sodipodi:namedview
     id="namedview1"
     pagecolor="#ffffff"
     bordercolor="#000000"
     borderopacity="0.25"
     inkscape:showpageshadow="2"
     inkscape:pageopacity="0.0"
     inkscape:pagecheckerboard="0"
     inkscape:deskcolor="#d1d1d1"
     inkscape:document-units="px"
     inkscape:zoom="2.2323187"
     inkscape:cx="254.89192"
     inkscape:cy="246.60458"
     inkscape:window-width="1920"
     inkscape:window-height="1137"
     inkscape:window-x="0"
     inkscape:window-y="35"
     inkscape:window-maximized="1"
     inkscape:current-layer="layer1" /><defs
     id="defs1"><linearGradient
       id="linearGradient36"
       inkscape:collect="always"><stop
         style="stop-color:#308ef8;stop-opacity:1;"
         offset="0"
         id="stop36" /><stop
         style="stop-color:#0766d1;stop-opacity:1;"
         offset="1"
         id="stop37" /></linearGradient><linearGradient
       id="linearGradient34"
       inkscape:collect="always"><stop
         style="stop-color:#308ff8;stop-opacity:1;"
         offset="0"
         id="stop34" /><stop
         style="stop-color:#0766d1;stop-opacity:1;"
         offset="1"
         id="stop35" /></linearGradient><linearGradient
       id="linearGradient32"
       inkscape:collect="always"><stop
         style="stop-color:#86c4f9;stop-opacity:1;"
         offset="0"
         id="stop32" /><stop
         style="stop-color:#4398f9;stop-opacity:1;"
         offset="1"
         id="stop33" /></linearGradient><linearGradient
       id="linearGradient30"
       inkscape:collect="always"><stop
         style="stop-color:#86c4f9;stop-opacity:1;"
         offset="0"
         id="stop30" /><stop
         style="stop-color:#4398f9;stop-opacity:1;"
         offset="1"
         id="stop31" /></linearGradient><linearGradient
       id="linearGradient28"
       inkscape:collect="always"><stop
         style="stop-color:#c4defd;stop-opacity:1;"
         offset="0"
         id="stop28" /><stop
         style="stop-color:#032954;stop-opacity:1;"
         offset="1"
         id="stop29" /></linearGradient><linearGradient
       id="linearGradient22"
       inkscape:collect="always"><stop
         style="stop-color:#c4defd;stop-opacity:1;"
         offset="0"
         id="stop22" /><stop
         style="stop-color:#032954;stop-opacity:1;"
         offset="1"
         id="stop23" /></linearGradient><linearGradient
       inkscape:collect="always"
       xlink:href="#linearGradient22"
       id="linearGradient23"
       x1="0.71458375"
       y1="112.1538"
       x2="511.47766"
       y2="510.24622"
       gradientUnits="userSpaceOnUse" /><linearGradient
       inkscape:collect="always"
       xlink:href="#linearGradient28"
       id="linearGradient29"
       x1="0.71458375"
       y1="112.1538"
       x2="511.47766"
       y2="510.24622"
       gradientUnits="userSpaceOnUse" /><linearGradient
       inkscape:collect="always"
       xlink:href="#linearGradient30"
       id="linearGradient31"
       x1="109.36689"
       y1="277.23813"
       x2="422.53726"
       y2="355.05127"
       gradientUnits="userSpaceOnUse" /><linearGradient
       inkscape:collect="always"
       xlink:href="#linearGradient32"
       id="linearGradient33"
       x1="109.36689"
       y1="277.23813"
       x2="422.53726"
       y2="355.05127"
       gradientUnits="userSpaceOnUse" /><linearGradient
       inkscape:collect="always"
       xlink:href="#linearGradient34"
       id="linearGradient35"
       x1="146.58807"
       y1="128.44099"
       x2="321.50165"
       y2="311.57642"
       gradientUnits="userSpaceOnUse" /><linearGradient
       inkscape:collect="always"
       xlink:href="#linearGradient36"
       id="linearGradient37"
       x1="146.58807"
       y1="128.44099"
       x2="321.50165"
       y2="311.57642"
       gradientUnits="userSpaceOnUse" /></defs><g
     inkscape:groupmode="layer"
     id="layer3"
     inkscape:label="Graph Background"
     style="display:inline"
     sodipodi:insensitive="true"><path
       style="display:inline;mix-blend-mode:normal;fill:url(#linearGradient23);fill-opacity:1;stroke:url(#linearGradient29)"
       d="m 0.51663559,240.67535 74.42500141,66.54587 72.340773,-103.78701 48.44226,58.35041 62.33224,-112.30351 45.85904,14.10236 57.70934,70.46504 78.87287,-121.1118 71.06794,38.88299 -0.0852,359.66186 -510.96716156,0.18887 z"
       id="path4"
       sodipodi:nodetypes="cccccccccccc"
       inkscape:label="Graph Fill"
       sodipodi:insensitive="true" /><path
       style="fill:none;fill-opacity:1;stroke:#000000;stroke-opacity:1"
       d="m 0.51663559,240.67535 74.42500141,66.54587 72.340773,-103.78701 48.44226,58.35041 62.33224,-112.30351 45.85904,14.10236 57.70934,70.46504 78.87287,-121.1118 71.06794,38.88299"
       id="path22"
       sodipodi:nodetypes="ccccccccc"
       inkscape:label="Graph Top"
       sodipodi:insensitive="true" /></g><g
     inkscape:label="Hat"
     inkscape:groupmode="layer"
     id="layer1"
     style="display:inline"><path
       style="fill:none;stroke:#000000"
       d="m 323.5285,277.17146 c -6.88195,-4.58769 -18.18903,-35.74884 -23.57317,-44.0693 -25.27068,-39.05243 -34.76578,-50.44254 -67.98642,-82.21716 -7.5284,-7.20071 -15.98697,-17.34669 -24.93974,-22.7179 -3.21215,-1.92712 -23.59616,15.03966 -27.33125,17.70744 -3.21674,2.29755 -35.75226,22.50201 -34.73342,24.53989 1.56553,3.13133 19.06241,4.27044 18.61941,3.70091 -2.25885,-2.90402 -5.87827,-4.31864 -8.48408,-7.00327 v -3e-5 c 1.39441,2.73921 9.86308,1.3438 16.34179,-0.0569 9.59093,-2.07362 19.13271,-3.78651 28.75473,-5.63678 4.31447,-0.82965 15.63357,-7.20606 12.52681,-4.09946 -1.92309,1.92298 -8.06153,5.4687 -8.48406,8.42669 -1.10024,7.70252 6.62741,24.32941 9.05346,31.82783 1.58382,4.89527 2.68368,10.06613 3.53028,15.14526 2.47495,14.84832 22.54383,6.67045 22.37745,7.00326 -4.56136,9.12439 -19.67505,13.8163 -25.73691,23.28728 -15.20538,23.75668 -21.64044,62.34781 -49.82254,75.15695 -4.65384,2.11523 -56.48963,33.35477 -54.49164,37.35074 1.70742,3.41485 17.78272,0.48675 19.92901,0.39855 29.6713,-1.21934 59.21078,-10.55931 88.31403,-15.77157 54.45428,-9.75251 108.74659,-20.60598 163.24716,-29.94891 5.76869,-0.98891 44.01594,-2.89667 42.98972,-8.02813 -2.86529,-14.32751 -81.32205,-12.47711 -100.10062,-24.99539"
       id="path2"
       sodipodi:nodetypes="csssssssscssssscsssssssc"
       inkscape:label="Outline" /><path
       style="fill:none;stroke:#000000"
       d="m 178.16457,307.83333 c 43.4271,11.35139 76.82028,-0.18122 115.4958,-16.7565 10.28702,-4.40874 23.13488,-6.20011 28.68807,-14.76034"
       id="path3"
       sodipodi:nodetypes="csc"
       inkscape:label="Hat Middle Line" /><path
       id="path5"
       style="display:inline;fill:url(#linearGradient35);fill-opacity:1;stroke:url(#linearGradient37);stroke-width:0.124436;stroke-opacity:1"
       inkscape:label="Top Fill"
       d="m 205.95508,128.62695 c -0.19238,0.0266 -0.4007,0.0877 -0.66211,0.17383 -3.26949,1.07694 -9.08282,5.02388 -20.94141,14.2207 -4.42565,3.43229 -4.47781,3.4688 -12.16797,8.4375 -14.70983,9.50422 -22.8901,15.16847 -25.57812,17.7129 -1.05798,1.00145 -1.07917,1.03435 -0.86328,1.27343 0.60248,0.66721 3.01761,1.51044 5.96093,2.08008 2.99633,0.57989 7.76043,1.12614 9.75196,1.11914 l 0.93359,-0.004 -0.6914,-0.64843 c -0.37993,-0.35681 -1.55599,-1.26078 -2.61329,-2.00977 -1.60326,-1.13575 -2.70328,-1.94918 -3.41601,-2.52539 -0.45543,-0.45474 -0.85302,-0.87779 -0.98242,-1.15625 0.0485,-0.0852 0.16724,-0.21236 0.37304,-0.3457 l 0.32813,-0.21289 c 0.0835,0.0151 0.17306,0.0407 0.27344,0.0723 l 0.38086,0.34961 c 0.62558,0.57666 1.16497,0.75244 2.73828,0.88672 2.36388,0.20175 6.03388,-0.22716 11.38672,-1.32812 8.15028,-1.67635 14.21639,-2.87488 21.90039,-4.33008 9.30597,-1.76236 9.53793,-1.82347 13.75,-3.63867 5.30561,-2.28649 5.85891,-2.51341 6.57226,-2.69922 0.84902,-0.22114 1.28374,-0.11123 1.40039,0.35351 0.0282,0.11226 -2.7e-4,0.22762 -0.0234,0.34375 -0.10381,0.24648 -0.30651,0.54035 -0.56054,0.85157 -0.49078,0.50075 -1.31071,1.17752 -2.75586,2.30078 h -0.0488 l -0.68945,0.53906 c -2.83849,2.22059 -4.1577,3.56401 -4.7461,4.82812 -0.0131,0.0282 -0.0139,0.0523 -0.0254,0.0781 l -0.1582,0.1543 0.0215,0.27929 c -0.0345,0.2231 -0.0487,0.53424 -0.0625,1.13672 -0.003,0.15187 0.006,0.3007 0.006,0.45117 2e-5,0.0115 -2e-5,0.0118 0,0.0234 4e-5,0.0185 0.002,0.0382 0.002,0.0566 0.003,1.94946 0.26063,3.8272 0.91406,6.47461 0.91478,3.70628 2.16348,7.42853 5.11914,15.26367 2.44722,6.48732 3.20978,8.69467 4.06641,11.76563 l 0.39648,1.41992 h 0.0254 l 0.004,0.0176 h 0.0625 c 0.009,0.0314 0.0169,0.0623 0.0254,0.0937 h -0.084 l 0.1836,0.76562 c 0.39792,1.67172 0.94995,4.32773 1.41015,6.7793 0.72932,3.88522 0.93004,4.62244 1.65821,6.08789 0.18331,0.36891 0.36676,0.65215 0.55859,0.93555 0.0229,0.0341 0.0487,0.0898 0.0723,0.12304 0.27194,0.38332 0.57825,0.7413 0.99804,1.13868 0.16312,0.1544 0.33014,0.27133 0.49414,0.41015 0.11493,0.098 0.23002,0.19794 0.34766,0.28906 0.20858,0.16169 0.42445,0.31017 0.63867,0.44922 0.10699,0.0688 0.21634,0.13534 0.32617,0.19922 0.24929,0.14655 0.50496,0.28822 0.76758,0.40821 0.007,0.003 0.0146,0.005 0.0215,0.008 0.73452,0.33321 1.52025,0.58559 2.42382,0.74414 0.23314,0.0409 0.54385,0.0567 0.8125,0.0879 0.1355,0.0157 0.2722,0.0304 0.41211,0.043 0.9051,0.0833 1.88022,0.13315 2.82813,0.0976 2.76789,-0.10346 4.3597,-0.37402 8.17383,-1.39257 1.21685,-0.32501 1.84225,-0.42798 2.07031,-0.34571 0.0231,0.0138 0.0517,0.0228 0.0703,0.041 0.0377,0.0396 0.0832,0.13008 0.10742,0.24023 0.15083,0.68673 -1.58668,3.13438 -3.76562,5.30469 -1.95471,1.94697 -3.49651,3.15705 -8.22461,6.45703 -6.72488,4.69367 -8.45423,6.02913 -10.54883,8.13672 -0.18571,0.18687 -0.32751,0.35486 -0.49805,0.5332 -0.006,0.006 -0.0135,0.0112 -0.0195,0.0176 -0.0184,0.0193 -0.0326,0.0356 -0.0508,0.0547 -1.72617,1.81645 -2.80252,3.35027 -4.88672,6.98437 -2.59668,4.52772 -4.62697,8.71675 -9.03711,18.63868 -0.65745,1.47912 -1.22583,2.76502 -1.26171,2.85742 l -0.0645,0.16797 h 0.0215 c -0.0169,0.0385 -0.028,0.061 -0.0449,0.0996 -6.06906,13.81705 -9.08382,19.97544 -12.73046,26.00195 -2.78512,4.60272 -6.35434,9.48423 -8.70899,11.91211 -0.34682,0.35762 -0.60512,0.67613 -0.57422,0.70703 0.10677,0.10677 3.54691,0.93187 6.21289,1.49023 6.16156,1.29047 12.80786,2.20774 18.54102,2.56055 1.19769,0.0737 2.4303,0.15098 2.73828,0.17188 1.46304,0.099 10.0403,0.0663 12.19531,-0.0469 11.98151,-0.62942 24.19121,-2.92449 37.64453,-7.07617 9.90513,-3.05672 20.03234,-6.87568 34.2793,-12.92578 4.69473,-1.99366 5.65227,-2.35654 11.32227,-4.29883 2.49803,-0.85572 5.21837,-1.80918 6.04492,-2.11719 3.72951,-1.38983 7.08883,-3.09489 9.32422,-4.73633 1.10286,-0.8098 3.16162,-2.83277 3.71679,-3.65039 l 0.35743,-0.52734 -0.67774,-0.8418 c -1.36593,-1.69691 -2.72529,-3.82706 -4.33008,-6.74218 0,-1e-5 0.008,0 0.008,0 0,-0.0111 -0.21885,-0.42189 -0.48633,-0.91407 -1.66754,-3.06835 -3.98133,-7.85002 -7.20899,-14.90234 -4.65358,-10.16795 -6.48373,-14.08522 -7.91211,-16.75391 -0.12367,-0.23537 -0.26103,-0.50151 -0.375,-0.71093 -0.29436,-0.53024 -0.64249,-1.13303 -0.93554,-1.61524 -0.029,-0.0463 -0.0671,-0.12118 -0.0957,-0.16601 -0.038,-0.0596 -0.0906,-0.13722 -0.1289,-0.19727 -0.28045,-0.45348 -0.53317,-0.88823 -0.86133,-1.39844 -5.90472,-9.18045 -13.63339,-20.6026 -18.91797,-27.95898 l -1.11328,-1.55078 -0.31641,-0.01 c -0.008,-0.01 -0.0413,-0.059 -0.0488,-0.0684 l 0.24414,-0.0332 -0.61719,-0.85938 c -1.55387,-2.16128 -4.45764,-5.86981 -7.16992,-9.24414 -0.31834,-0.39576 -0.64078,-0.79802 -0.96094,-1.1914 -0.58064,-0.71454 -1.24821,-1.57421 -1.75977,-2.1875 -0.57527,-0.68969 -1.16983,-1.35723 -1.74804,-2.03711 -0.0114,-0.0134 -0.0218,-0.0277 -0.0332,-0.041 -0.0223,-0.0263 -0.046,-0.0538 -0.0684,-0.0801 -5.29491,-6.21855 -10.95808,-12.28584 -18.71679,-20.06054 -0.86773,-0.86952 -1.62086,-1.64601 -2.54688,-2.56446 l -4.30859,-4.27539 h -0.0762 c -1.95431,-1.90762 -3.97419,-3.86806 -6.16016,-5.9707 -2.19006,-2.10659 -6.78095,-6.66029 -10.20117,-10.11914 -8.55716,-8.65376 -11.46155,-11.2453 -15.99024,-14.26367 -1.17057,-0.7802 -1.58889,-1.00751 -2.16601,-0.92774 z m 32.03515,73.80469 c 0.18926,-0.0149 0.49121,-0.014 0.6875,0 -5.4e-4,5.3e-4 5.7e-4,0.001 0,0.002 0.14338,0.014 0.0328,0.0254 -0.33398,0.0254 -0.39035,0 -0.54868,-0.0119 -0.35352,-0.0273 z" /><path
       id="path7"
       style="display:inline;fill:url(#linearGradient33);fill-opacity:1;stroke:url(#linearGradient31);stroke-width:0.0747044;stroke-opacity:1"
       inkscape:label="Bottom Fill"
       d="m 322.52734,277.19531 -0.56836,0.71289 c -0.0719,0.0899 -0.15219,0.17665 -0.22656,0.26563 l -0.91992,0.87109 c -1.38314,1.3107 -2.91902,2.51759 -4.44531,3.53516 -0.14423,0.0935 -0.29076,0.18821 -0.4375,0.2793 -1.16877,0.75043 -2.30139,1.34369 -3.3711,1.80078 h -0.0137 l -0.55078,0.25195 c -0.002,6.9e-4 -0.004,0.001 -0.006,0.002 -0.14906,0.0678 -0.42952,0.16699 -0.59375,0.23828 -3.54968,1.27535 -6.69087,2.43183 -9.66797,3.53907 -4.26439,1.45172 -6.04558,2.11365 -9.5957,3.62695 -0.5549,0.23653 -1.01665,0.42273 -1.55859,0.65234 -14.59986,5.90205 -21.61742,8.60246 -28.14258,10.81836 -3.7328,1.26764 -7.4015,2.39849 -11.01172,3.39453 -0.0129,0.004 -0.0262,0.006 -0.0391,0.01 -10.81629,2.98158 -21.10904,4.74981 -31.04102,5.33789 -1.03356,0.0612 -2.87131,0.067 -4.47851,0.0918 -1.12947,0.0101 -2.04444,0.0371 -3.34571,0.0371 -2.20187,-6e-5 -3.97222,-0.0481 -5.81055,-0.0899 -0.50704,-0.0168 -1.28745,-0.01 -1.70507,-0.0312 -0.34423,-0.0175 -0.68644,-0.0389 -1.02539,-0.0586 -7.24545,-0.44943 -14.04931,-1.44752 -22.11524,-3.27149 -1.43784,-0.32514 -2.3091,-0.50289 -2.79101,-0.59179 l -0.79883,-0.21289 -1.01953,0.99804 c -0.1323,0.12932 -0.2413,0.21681 -0.36914,0.33985 -0.0493,0.0442 -0.0898,0.0754 -0.13868,0.11914 -0.23794,0.20237 -0.26214,0.18814 -0.52148,0.41797 -3.56732,3.16131 -6.24692,5.03267 -10.76367,7.51758 -0.80746,0.44421 -1.18315,0.66386 -1.83985,1.02734 -1.54377,0.79733 -3.07147,1.63002 -5.38281,2.98047 -2.14396,1.25267 -7.19401,4.27052 -9.30859,5.5625 l -0.73047,0.44726 c -0.2458,0.14707 -1.10742,0.6595 -1.19922,0.71485 l -0.88476,0.5332 v 0.008 0.0312 0.0664 c -2.63234,1.6207 -7.99785,4.98274 -10.81836,6.79297 -14.25622,9.1497 -24.24012,16.56102 -25.43946,18.88281 -0.16836,0.32591 -0.14321,0.44732 0.01,0.60156 8e-5,1e-5 -9e-5,0.002 0,0.002 1.6e-4,0 0.004,0.002 0.004,0.002 0.0497,0.0493 0.0563,0.0879 0.14649,0.15625 0.36477,0.27636 1.75079,0.70896 2.74805,0.85937 0.87146,0.13143 4.87355,0.0948 6.71679,-0.0625 0.73483,-0.0627 2.23798,-0.22282 3.80469,-0.39648 4.25334,-0.45299 6.99919,-0.70247 9.30664,-0.86914 3.67735,-0.22253 8.93327,-0.73428 13.52149,-1.31641 v 0.043 l 0.32421,-0.0449 h 0.0703 0.008 c 0.22132,0 0.7121,-0.0688 1.0918,-0.1543 0.002,-4.7e-4 0.0232,-0.003 0.0254,-0.004 l 0.0996,-0.004 v -0.0117 c 0.0747,-0.0157 0.57577,-0.0924 0.72656,-0.11914 0.73584,-0.0879 3.6336,-0.52033 5.84765,-0.88477 3.11256,-0.51231 6.33362,-1.10782 9.80274,-1.78124 0.49226,-0.0961 1.08205,-0.2048 1.60156,-0.3086 0.47364,-0.0937 0.88049,-0.16746 1.36914,-0.26562 3.57784,-0.71878 7.07019,-1.46588 12.14258,-2.58204 0.20888,-0.0453 0.26924,-0.0553 0.48242,-0.10156 28.0954,-6.09781 30.62593,-6.61357 50.99805,-10.37695 2.33883,-0.43206 10.87228,-2.02233 15.48828,-2.87891 0.24833,-0.0459 0.70297,-0.13145 0.95312,-0.17773 19.13144,-3.55061 47.40361,-8.80112 62.71876,-11.66016 v 0.082 l 0.01,-0.004 h 0.004 c 3e-5,0 0.006,-0.002 0.006,-0.002 0.004,-4.7e-4 0.13987,-0.0248 0.18554,-0.0332 0.1088,-0.0199 0.20172,-0.0369 0.44141,-0.082 0.34562,-0.0651 0.92399,-0.17429 1.28516,-0.24219 0.28292,-0.0532 0.49423,-0.0941 0.75,-0.14258 0.49672,-0.0941 0.82386,-0.15456 1.13671,-0.21484 0.1362,-0.0262 0.34923,-0.0691 0.50586,-0.0996 0.8269,-0.16099 1.67217,-0.32867 2.50586,-0.49609 0.0861,-0.0173 0.12249,-0.0248 0.20313,-0.041 0.48306,-0.0974 1.06216,-0.21226 1.2168,-0.24609 0.1491,-0.0326 0.41155,-0.0913 0.58398,-0.12891 0.11675,-0.0255 0.17931,-0.0399 0.25,-0.0566 0.0204,-0.005 0.06,-0.0125 0.0723,-0.0156 0.0216,-0.005 0.0356,-0.009 0.0469,-0.0117 0.003,-7.6e-4 0.0105,-0.003 0.0137,-0.004 0.008,-0.002 0.023,-0.005 0.0332,-0.008 0.007,0.003 0.0146,10e-4 0.0176,-0.004 0.0331,-0.008 0.0626,-0.016 0.0977,-0.0234 0.0582,-0.0123 0.12158,-0.0272 0.14258,-0.0352 0.021,-0.008 0.0552,-0.015 0.0762,-0.0156 0.002,-5e-5 0.004,-0.002 0.006,-0.002 0.002,-1e-4 0.004,1.4e-4 0.006,0 0.008,-7.9e-4 0.0206,-0.003 0.0332,-0.006 0.007,-10e-4 0.006,-2.7e-4 0.0156,-0.002 0.002,-4.5e-4 0.002,-0.002 0.004,-0.002 0.0132,-0.003 0.0223,-0.004 0.0332,-0.008 0.002,-6.5e-4 0.003,-10e-4 0.006,-0.002 0.01,-0.003 0.0119,-0.006 0.0176,-0.01 0.004,-0.003 0.0114,-0.005 0.0117,-0.008 l 0.002,-0.002 0.002,-0.002 c 0,-0.006 0.004,-0.009 0.008,-0.01 0.003,5.2e-4 0.006,0.004 0.008,0.008 -0.008,0.009 -0.006,0.0177 0.0156,0.0137 0.006,-0.001 0.52006,-0.0973 0.78515,-0.14648 0.0158,-0.003 0.0304,-0.005 0.0469,-0.008 0.006,-0.002 0.0202,-0.006 0.0332,-0.008 h 0.002 c 0.008,-10e-4 0.0114,-0.002 0.0195,-0.004 0.0182,-0.003 0.0335,-0.006 0.0723,-0.0137 0.006,-0.002 0.0162,-0.002 0.0254,-0.004 h 0.002 c 0.009,-0.002 0.014,-0.002 0.0234,-0.004 0.0163,-0.003 0.0391,-0.008 0.0508,-0.01 0.0117,-0.002 0.0293,-0.006 0.041,-0.008 0.0116,-0.002 0.0345,-0.007 0.0508,-0.01 0.0163,-0.003 0.0474,-0.008 0.0684,-0.0117 0.0209,-0.004 0.0584,-0.0106 0.084,-0.0156 0.074,-0.0138 0.0795,-0.0134 0.15429,-0.0274 0.0346,-0.006 0.0637,-0.0125 0.10157,-0.0195 0.12294,-0.0229 0.26059,-0.0478 0.33007,-0.0605 0.0435,-0.008 0.0496,-0.0106 0.0762,-0.0156 0.0508,-0.01 0.0988,-0.0175 0.10743,-0.0215 0.43181,-0.0805 0.67363,-0.12666 0.86914,-0.16406 10e-4,1.9e-4 0.003,3.1e-4 0.004,0 0.0331,-0.006 0.12494,-0.0228 0.14844,-0.0273 0.0115,-9.5e-4 0.0225,-0.003 0.0312,-0.004 0.0162,-10e-4 0.0205,-0.004 0.0195,-0.006 0.007,-0.001 0.0434,-0.009 0.0488,-0.01 0.011,-0.001 0.0191,-0.001 0.0254,-0.004 0.005,2.3e-4 0.008,-7.5e-4 0.006,-0.002 0.004,-8.3e-4 0.0397,-0.007 0.043,-0.008 7e-4,-3e-5 0.003,10e-5 0.004,0 0.0111,-0.002 0.15101,-0.0292 0.15039,-0.0293 -0.002,-2.7e-4 -0.067,0.0115 -0.082,0.0137 0.005,-0.002 0.0315,-0.007 0.0332,-0.008 0.008,-0.004 0.0169,-0.006 0.0215,-0.004 h 0.002 c 0.004,0.003 0.0154,10e-4 0.0234,-0.004 0.0185,-0.0107 0.82105,-0.15572 1.96289,-0.35547 1.59958,-0.27982 4.29543,-0.75758 4.32813,-0.76758 v -0.002 l 0.0156,-0.002 v -0.002 -0.002 -0.082 c 0.25026,-0.045 0.2644,-0.0422 0.51758,-0.0879 4.40756,-0.79618 13.07724,-2.36508 19.26563,-3.48437 15.58191,-2.81829 27.24273,-4.85411 30.59765,-5.34375 2.60263,-0.37983 4.69288,-0.60962 16.4336,-1.80469 1.41761,-0.14429 2.44621,-0.28064 3.73047,-0.42187 1.4051,-0.15315 2.77879,-0.30662 4.0332,-0.45703 1.08778,-0.13199 2.20257,-0.26719 3.18164,-0.39844 1.00231,-0.13255 1.90876,-0.26626 2.80273,-0.39844 0.0464,-0.008 0.2978,-0.034 0.33594,-0.041 0.18354,-0.0336 0.29852,-0.0498 0.48633,-0.082 0.79273,-0.12167 1.56479,-0.24293 2.27148,-0.36523 0.27489,-0.0485 0.54028,-0.0997 0.80274,-0.14844 4.11393,-0.74977 6.7836,-1.52147 8.29492,-2.39453 0.98586,-0.56951 1.10272,-0.87 0.69141,-1.80273 -1.02206,-2.31774 -4.49566,-4.33686 -10.50196,-6.14453 -0.26055,-0.0805 -0.51544,-0.16474 -0.78711,-0.24415 -0.65265,-0.18711 -1.37822,-0.36818 -2.08789,-0.55078 -1.20651,-0.31155 -2.55868,-0.62983 -4.01758,-0.94531 -0.6009,-0.12971 -1.15623,-0.26312 -1.78906,-0.39062 -0.0605,-0.0122 -0.11945,-0.0211 -0.17968,-0.0332 -0.22783,-0.0463 -0.39658,-0.09 -0.63086,-0.13672 -0.27176,-0.0542 -0.68103,-0.11085 -0.95508,-0.16406 -0.72255,-0.13952 -1.45681,-0.28079 -2.19532,-0.41406 -0.006,-10e-4 -0.0209,-0.003 -0.0273,-0.004 -1.79467,-0.32356 -3.75395,-0.65092 -6.06055,-1 -0.20194,-0.0306 -0.3657,-0.0605 -0.57421,-0.0918 -0.6462,-0.0965 -1.61287,-0.22508 -2.32813,-0.32813 -0.0713,-0.01 -0.11055,-0.0185 -0.17969,-0.0273 -0.43647,-0.0561 -0.9391,-0.12826 -1.11718,-0.16016 -0.2853,-0.0512 -1.00627,-0.15193 -2.34766,-0.32812 -0.006,-8.4e-4 -0.1253,-0.0163 -0.13477,-0.0176 -1.43708,-0.19801 -3.15255,-0.43069 -4.88476,-0.66211 -2.24452,-0.30637 -3.39156,-0.48677 -6.23047,-0.86524 -14.95801,-1.99411 -21.30032,-2.87842 -26.10742,-3.68554 -1.2624,-0.21969 -1.8948,-0.32785 -3.13672,-0.55274 -1.05482,-0.19621 -2.09342,-0.38392 -3.2168,-0.60937 -9.00618,-1.80745 -16.09352,-4.08983 -19.75,-6.35938 l -0.66015,-0.41015 z" /></g></svg>
